<?xml version="1.0" encoding="utf-8"?>
<!-- Generator: Adobe Illustrator 19.2.1, SVG Export Plug-In . SVG Version: 6.00 Build 0)  -->
<svg version="1.1" id="群組_6" xmlns="http://www.w3.org/2000/svg" xmlns:xlink="http://www.w3.org/1999/xlink" x="0px" y="0px"
	 viewBox="0 0 100 100" style="enable-background:new 0 0 100 100;" xml:space="preserve">
<style type="text/css">
	.st0{fill:#FFC2BF;}
	.st1{fill:none;}
	.st2{fill-rule:evenodd;clip-rule:evenodd;fill:#514D4C;}
	.st3{clip-path:url(#SVGID_2_);fill-rule:evenodd;clip-rule:evenodd;fill:#5BB6B1;}
	.st4{clip-path:url(#SVGID_2_);fill-rule:evenodd;clip-rule:evenodd;fill:#1696A3;}
	.st5{clip-path:url(#SVGID_2_);fill-rule:evenodd;clip-rule:evenodd;fill:#FEFEFE;}
	.st6{clip-path:url(#SVGID_2_);fill-rule:evenodd;clip-rule:evenodd;fill:#A7DFEE;}
	.st7{clip-path:url(#SVGID_2_);fill-rule:evenodd;clip-rule:evenodd;fill:#D63A2C;}
	.st8{clip-path:url(#SVGID_2_);fill-rule:evenodd;clip-rule:evenodd;fill:#F3422F;}
</style>
<circle id="橢圓_1" class="st0" cx="50" cy="50" r="50"/>
<path class="st1" d="z"/>
<g>
	<rect x="54.7" y="52.9" transform="matrix(0.8012 -0.5984 0.5984 0.8012 -22.0418 45.3964)" class="st2" width="5.1" height="6"/>
	<g>
		<defs>
			
				<rect id="SVGID_1_" x="26.4" y="16.4" transform="matrix(0.977 -0.2132 0.2132 0.977 -9.9375 11.8566)" width="47.2" height="71.2"/>
		</defs>
		<clipPath id="SVGID_2_">
			<use xlink:href="#SVGID_1_"  style="overflow:visible;"/>
		</clipPath>
		<path class="st3" d="M31.6,21.5c9.2-6.9,22.3-4.9,29.1,4.3c6.8,9.2,5.1,22.3-4.1,29.2c-9.2,6.9-22.3,4.9-29.1-4.3
			C20.6,41.5,22.4,28.3,31.6,21.5 M35.5,26.7c-6.3,4.7-7.5,13.8-2.8,20.1c4.7,6.3,13.7,7.7,20,3C59,45,60.2,36,55.5,29.7
			C50.8,23.4,41.8,22,35.5,26.7"/>
		<path class="st4" d="M42.5,17.4c6.9-0.5,13.8,2.5,18.2,8.4c6.8,9.2,5.1,22.3-4.1,29.2c-3.4,2.6-7.4,3.9-11.3,4.1l-0.4-6.5
			c2.8-0.1,5.5-1,7.9-2.8C59,45,60.2,36,55.5,29.7c-3-4.1-7.8-6.1-12.6-5.8L42.5,17.4z"/>
		<path class="st5" d="M42.8,22.3c8.8-0.7,16.5,5.8,17.2,14.6c0.7,8.8-5.8,16.5-14.6,17.2c-8.8,0.7-16.5-5.8-17.2-14.6
			C27.5,30.7,34,23,42.8,22.3"/>
		<path class="st6" d="M42.8,22.3c8.8-0.7,16.5,5.8,17.2,14.6c0.7,8.8-5.8,16.5-14.6,17.2L42.8,22.3z"/>
		<path class="st7" d="M56.6,59.3l5-3.8c0.7-0.5,1.6-0.4,2.1,0.3l15.7,21c0.5,0.7,0.4,1.6-0.3,2.1l-5,3.8c-0.7,0.5-1.6,0.4-2.1-0.3
			l-15.7-21C55.8,60.8,55.9,59.8,56.6,59.3"/>
		<path class="st8" d="M56,59.8l2.5-1.9c0.3-0.2,0.8-0.2,1.1,0.2l16.6,22.2c0.2,0.3,0.2,0.8-0.2,1.1l-2.5,1.9
			c-0.3,0.2-0.8,0.2-1.1-0.2L55.9,60.8C55.6,60.5,55.7,60,56,59.8"/>
	</g>
</g>
</svg>
