<svg xmlns="http://www.w3.org/2000/svg" xmlns:xlink="http://www.w3.org/1999/xlink" width="376" height="95" viewBox="0 0 376 95">
  <defs>
    <linearGradient id="a" data-name="未命名漸層 3" x1="-923.18" y1="-66.45" x2="-823.94" y2="-66.45" gradientTransform="matrix(1.08, 0.29, 0.71, -0.45, 1116.03, 322.4)" gradientUnits="userSpaceOnUse">
      <stop offset="0" stop-color="#fff" stop-opacity="0.7"/>
      <stop offset="0.55" stop-color="#f8f8f8"/>
      <stop offset="1"/>
    </linearGradient>
    <linearGradient id="b" data-name="未命名漸層 4" x1="-847.82" y1="-730.92" x2="-748.59" y2="-730.92" gradientTransform="matrix(0.71, 0.54, 0.47, -0.83, 1253.83, -45.3)" gradientUnits="userSpaceOnUse">
      <stop offset="0" stop-color="#fff" stop-opacity="0.7"/>
      <stop offset="0.5" stop-color="#f8f8f8"/>
      <stop offset="1"/>
    </linearGradient>
  </defs>
  <title>blue</title>
  <rect x="53.28" y="68.31" width="116.16" height="48.08" transform="translate(124.8 236.4) rotate(-135)" style="opacity: 0.6;fill: url(#a)"/>
  <g style="opacity: 0.6">
    <path d="M95.17,73.1A3.87,3.87,0,0,0,92,70.23L91.49,70,91.27,69,91,67.77l2.67-1a2,2,0,0,0,1.6-2.41L89.38,35A2,2,0,0,0,87,33.36l-2.85.12-0.42-2.1a2,2,0,0,0-2.41-1.6L3.68,45.41a2,2,0,0,0-1.6,2.41l0,0.13,19.52,96.89,0.51,2.53A2,2,0,0,0,24.47,149l6-1.2,1.37,6.78,0.26,1.31L97.9,142.61h0l-0.26-1.31h0l-1.37-6.78,8.36-1.68a2.57,2.57,0,0,0,2-3.06Z" style="fill: #202020;opacity: 0.2"/>
    <g>
      <path d="M81.66,30a2,2,0,0,0-2.41-1.6L1.64,44.06A2,2,0,0,0,0,46.46l19.54,97a2,2,0,0,0,2.41,1.6L99.6,129.44a2,2,0,0,0,1.6-2.41Z" style="fill: #ff9f00"/>
      <path d="M87.34,33.61A2,2,0,0,0,84.93,32l-7.78.32a2,2,0,0,0-1.6,2.41L82,66.53a2,2,0,0,0,2.41,1.6l7.3-2.72A2,2,0,0,0,93.26,63Z" style="fill: #ff9f00"/>
    </g>
    <path d="M98.28,105.49L91.72,72.93a2.83,2.83,0,0,0-3.4-2.26L12.77,84.27,101,110.67l-0.69-3.43A2.85,2.85,0,0,1,98.28,105.49Z" style="fill: #231f20;opacity: 0.1"/>
    <path d="M93.13,71.74A3.87,3.87,0,0,0,90,68.87l-1.06-.41A4.69,4.69,0,0,1,86,65.78l-7.1-35.22a2,2,0,0,0-2.34-1.61L1.6,44.2A2,2,0,0,0,.07,46.59l20,99.42a2,2,0,0,0,2.34,1.62l80.15-16.15a2.57,2.57,0,0,0,2-3.06Z" style="fill: #ffc55e"/>
    <rect x="20.1" y="53.83" width="67.17" height="96.26" transform="translate(-19.08 12.61) rotate(-11.39)" style="fill: #fff"/>
    <polygon points="77.25 48.85 94.23 133.16 78.35 48.63 77.25 48.85" style="fill: #231f20;opacity: 0.1"/>
    <g>
      <path d="M43.78,83.67l0-.06H43.7l0,0.06v0.05H43.8Z" style="fill: #4aa8d0"/>
      <path d="M54.84,81.5l0,0.26,0.25-.05Z" style="fill: #4aa8d0"/>
      <path d="M43.7,83.63l-0.84.19v0l0.87-.12V83.69Z" style="fill: #4aa8d0"/>
      <path d="M43.66,83.31a2.21,2.21,0,0,0-.16-0.36l0,0a2.15,2.15,0,0,1,.15.35c0,0.1.06,0.2,0.09,0.3h0.06C43.73,83.51,43.7,83.41,43.66,83.31Z" style="fill: #4aa8d0"/>
      <path d="M55.78,83.82c-0.09-.4-0.18-0.79-0.25-1.19s-0.14-.8-0.2-1.2l0-.25-0.25,0c-1,.2-2,0.41-3.05.62l-1.52.33-1.52.33c-1,.21-2,0.44-3,0.66l-1.52.33-0.61.14,0,0.06,0,0.06,0.61-.08c0.51-.07,1-0.14,1.54-0.23,1-.17,2-0.34,3.07-0.53l1.53-.28,1.53-.29,2.8-.57,0-.26,0.29,0.21-0.25.05,0.06,0.35c0,0.2.08,0.41,0.12,0.61,0.09,0.4.19,0.81,0.29,1.2s0.21,0.79.3,1.19,0.16,0.68.23,1l0.17,0-0.13.22,0-.17-1.16.32-1.34.34-2.7.64-2.7.64-1.35.33-1.28.34,0,0.06-0.1,0,0.07,0a9,9,0,0,1-.54-1.35c-0.16-.49-0.3-1-0.43-1.48L44,84.42c-0.06-.23-0.12-0.46-0.19-0.68H43.73c0.06,0.23.12,0.46,0.18,0.69l0.36,1.5c0.12,0.5.25,1,.4,1.49a8.81,8.81,0,0,0,.55,1.45l0,0.06,0.07,0,1.35-.33L48,88.3l2.71-.59,2.71-.6,1.35-.32,1.35-.35,0.17,0,0-.18C56.14,85.42,56,84.61,55.78,83.82Z" style="fill: #4aa8d0"/>
      <path d="M45.39,88.8l0-.06-0.07,0Z" style="fill: #4aa8d0"/>
      <path d="M56.06,86.08l-0.17,0,0,0.17Z" style="fill: #4aa8d0"/>
      <path d="M40.64,74.51a3.23,3.23,0,0,0-1.23-.31,10.08,10.08,0,0,0-2.21.11,16.67,16.67,0,0,0-1.81.39,13.3,13.3,0,0,0-1.35.44,6.65,6.65,0,0,0-1.12.52l0,0a8.15,8.15,0,0,1,1.15-.4c0.38-.11.83-0.22,1.36-0.33s1.13-.2,1.79-0.27a9.71,9.71,0,0,1,2.11,0,3,3,0,0,1,1,.29,0.75,0.75,0,0,1,.44.77,2.64,2.64,0,0,1-.42,1.07,3.94,3.94,0,0,1-.82.91,10.1,10.1,0,0,1-2.21,1.38,11.93,11.93,0,0,1-2.48.85,5.46,5.46,0,0,1-2.49.06,1.79,1.79,0,0,1-1-.6,1.32,1.32,0,0,1-.3-1,1.65,1.65,0,0,1,.54-0.89,4.23,4.23,0,0,1,.83-0.59,8.33,8.33,0,0,1,1.68-.69,8.89,8.89,0,0,1,1.37-.29,4,4,0,0,1,.9,0,1,1,0,0,1,.31.07l0,0-0.08,0-0.24-.05a4,4,0,0,0-.91,0,9,9,0,0,0-1.39.26,8.45,8.45,0,0,0-1.72.65,4.41,4.41,0,0,0-.88.6,1.85,1.85,0,0,0-.62,1A1.33,1.33,0,0,0,31,79a1.75,1.75,0,0,0,.28.57,2.06,2.06,0,0,0,1.08.71,5.74,5.74,0,0,0,2.63,0,12.33,12.33,0,0,0,2.58-.82,10.51,10.51,0,0,0,2.35-1.38,4.2,4.2,0,0,0,.94-1,2.9,2.9,0,0,0,.51-1.29A1.25,1.25,0,0,0,41.18,75,1.39,1.39,0,0,0,40.64,74.51Z" style="fill: #4aa8d0"/>
      <path d="M56.43,73h0Z" style="fill: #4aa8d0"/>
      <path d="M56.88,71.74a1.34,1.34,0,0,0-.1-0.14,1.47,1.47,0,0,0-.25-0.22,2.84,2.84,0,0,0-1.1-.41,6.15,6.15,0,0,0-1.06-.1,13.88,13.88,0,0,0-1.91.13,16.07,16.07,0,0,0-1.58.31c-0.47.11-.87,0.23-1.19,0.34s-0.53.19-.69,0.27l-0.21.16a9.87,9.87,0,0,1,1-.26c0.33-.07.74-0.16,1.2-0.23s1-.14,1.57-0.19a13.5,13.5,0,0,1,1.86,0,8.1,8.1,0,0,1,1,.11,2.38,2.38,0,0,1,.9.34,0.7,0.7,0,0,1,.33.72c0,0.07,0,.14-0.05.22l0,0.13,0,0.07h0v0a1.15,1.15,0,0,1-.31.35,7,7,0,0,1-2,1,13.38,13.38,0,0,1-2.22.56,8.49,8.49,0,0,1-2.2.1A2,2,0,0,1,48,74.1a1.21,1.21,0,0,1-.1-0.87,1.83,1.83,0,0,1,.43-0.74,3.58,3.58,0,0,1,.43-0.4l-0.07,0,0,0,0.25-.12,0.05,0a6.46,6.46,0,0,1,.61-0.37,7.74,7.74,0,0,1,1.12-.49,6,6,0,0,1,.76-0.22l0.27,0v0l-0.28,0a6.15,6.15,0,0,0-.77.2,7.83,7.83,0,0,0-1.15.46,4.81,4.81,0,0,0-1.32.93,2,2,0,0,0-.5.81,1.43,1.43,0,0,0,.09,1l0.06,0.12,0,0v0h0l0,0.05L48,74.54l0.1,0.1a1.76,1.76,0,0,0,.46.32,3.47,3.47,0,0,0,1.07.3,8.79,8.79,0,0,0,2.29,0,13.75,13.75,0,0,0,2.3-.52,10.89,10.89,0,0,0,1.12-.42,5.12,5.12,0,0,0,1.05-.6,1.59,1.59,0,0,0,.45-0.49l0,0v0h0v0l0-.07L57,72.91a2.88,2.88,0,0,0,.08-0.33A1.25,1.25,0,0,0,57,71.9,0.58,0.58,0,0,0,56.88,71.74Z" style="fill: #4aa8d0"/>
      <path d="M48.67,72.07l0,0,0.07,0L49,71.92l-0.05,0Z" style="fill: #4aa8d0"/>
      <path d="M72.64,80.7a3.53,3.53,0,0,0-1-.68,6.52,6.52,0,0,0-2.12-.55,7.44,7.44,0,0,0-2,.08,5.46,5.46,0,0,0-1.56.53,4.13,4.13,0,0,0-1,.75,4.07,4.07,0,0,0-.51.63l-0.14.25,0,0,0.17-.22A4.43,4.43,0,0,1,65.11,81a4.63,4.63,0,0,1,1-.62,5.73,5.73,0,0,1,1.5-.4,7,7,0,0,1,1.84,0,6.66,6.66,0,0,1,2,.54,3.07,3.07,0,0,1,.86.56,0.94,0.94,0,0,1,.35.81,1.39,1.39,0,0,1-.58.79,4.94,4.94,0,0,1-1,.56,13,13,0,0,1-2.19.7,9.77,9.77,0,0,1-2.2.33,4.67,4.67,0,0,1-2-.37,2.24,2.24,0,0,1-.75-0.54,1.3,1.3,0,0,1-.33-0.77,1.49,1.49,0,0,1,.18-0.77,2.75,2.75,0,0,1,.44-0.59,4.67,4.67,0,0,1,1-.74c0.14-.09.28-0.16,0.4-0.22l0.3-.15L66.15,80l0,0L65.87,80a7.05,7.05,0,0,0-.72.35,4.74,4.74,0,0,0-1,.72,2.89,2.89,0,0,0-.49.61,1.65,1.65,0,0,0-.22.85,1.48,1.48,0,0,0,.35.89,2.45,2.45,0,0,0,.81.62,4.83,4.83,0,0,0,2.11.45A10,10,0,0,0,69,84.24a13.29,13.29,0,0,0,2.27-.67A5.3,5.3,0,0,0,72.32,83a1.81,1.81,0,0,0,.77-1,1.19,1.19,0,0,0-.08-0.7A1.73,1.73,0,0,0,72.64,80.7Z" style="fill: #4aa8d0"/>
      <path d="M59,94.35l0.1-.05-0.43.17,0,0Z" style="fill: #4aa8d0"/>
      <path d="M66,93.6l-0.09-.17a0.61,0.61,0,0,0-.1-0.16l-0.12-.14a2.22,2.22,0,0,0-1.51-.62,5,5,0,0,0-1.16,0,8.47,8.47,0,0,0-1.92.54,11.76,11.76,0,0,0-1.37.67L59.26,94l-0.35.23-0.29.19h0l0.43-.17,0.27-.14,0.5-.24c0.38-.17.84-0.37,1.39-0.56a9.14,9.14,0,0,1,1.86-.42,4.64,4.64,0,0,1,1.07,0,2.24,2.24,0,0,1,1,.36,1,1,0,0,1,.46.87,2,2,0,0,1-.41,1.07,5.36,5.36,0,0,1-.89.94,9.16,9.16,0,0,1-1.11.78,16.18,16.18,0,0,1-2.53,1.21,23.66,23.66,0,0,1-2.68.89,7.26,7.26,0,0,1-2.67.28,1.58,1.58,0,0,1-1.06-.53A1.31,1.31,0,0,1,54,98.3l0-.16V98a1.31,1.31,0,0,1,0-.28,2,2,0,0,1,.57-1,5.24,5.24,0,0,1,.86-0.68,13.38,13.38,0,0,1,1.72-.91c0.53-.24,1-0.43,1.38-0.59l0.89-.38L59.75,94l0,0-0.31.14-0.35.15-0.1.05-0.3.16,0,0-0.12,0c-0.39.15-.86,0.33-1.4,0.56a13.54,13.54,0,0,0-1.76.87,5.44,5.44,0,0,0-.91.68,2.19,2.19,0,0,0-.66,1.06,1.54,1.54,0,0,0,0,.33v0.17l0,0.16a1.56,1.56,0,0,0,.27.64,1.54,1.54,0,0,0,.55.45,2.49,2.49,0,0,0,.67.21,7.53,7.53,0,0,0,2.79-.24,23.91,23.91,0,0,0,2.74-.86l0.67-.26c0.22-.09.44-0.17,0.67-0.28s0.44-.2.66-0.31,0.43-.22.63-0.34a6.89,6.89,0,0,0,2.18-1.83,2.46,2.46,0,0,0,.49-1.36,1.46,1.46,0,0,0,0-.38A1.81,1.81,0,0,0,66,93.6Z" style="fill: #4aa8d0"/>
      <path d="M38.52,87.77l-0.05-.15a1.72,1.72,0,0,0-.15-0.33,1.76,1.76,0,0,0-1.16-.84,3.7,3.7,0,0,0-1.34-.05,7.38,7.38,0,0,0-1.22.28,10.15,10.15,0,0,0-1.11.41,20.37,20.37,0,0,0-1.92,1c-0.58.32-1.09,0.66-1.54,1s-0.82.58-1.13,0.82-0.53.44-.69,0.57L28,90.59l0,0,0.25-.19c0.17-.12.41-0.29,0.73-0.5s0.72-.45,1.17-0.72,1-.55,1.57-0.85a20,20,0,0,1,1.92-.86,9.91,9.91,0,0,1,2.22-.61,3.25,3.25,0,0,1,1.15,0,1.31,1.31,0,0,1,.87.6,1.13,1.13,0,0,1,.12.25l0.05,0.15a0.81,0.81,0,0,1,0,.12,1.38,1.38,0,0,1,0,.28,2,2,0,0,1,0,.29,3.32,3.32,0,0,1-.54,1.1,8.74,8.74,0,0,1-1.81,1.8,11.44,11.44,0,0,1-2.14,1.29,6.64,6.64,0,0,1-2.23.63,2.53,2.53,0,0,1-1.9-.58,1.24,1.24,0,0,1-.4-0.77,1.55,1.55,0,0,1,.13-0.8,2.54,2.54,0,0,1,.86-1,2.81,2.81,0,0,1,.78-0.4l0.22-.06,0.08,0v0l-0.08,0-0.23.06a2.88,2.88,0,0,0-.81.39,2.63,2.63,0,0,0-.92,1,1.68,1.68,0,0,0-.16.86,1.4,1.4,0,0,0,.42.88,2.72,2.72,0,0,0,2,.69,6.76,6.76,0,0,0,2.33-.6A11.75,11.75,0,0,0,36,91.78a9.09,9.09,0,0,0,1.93-1.84,3.71,3.71,0,0,0,.63-1.23,2.4,2.4,0,0,0,.07-0.36,1.81,1.81,0,0,0,0-.37A1.12,1.12,0,0,0,38.52,87.77Z" style="fill: #4aa8d0"/>
      <path d="M48.23,88.43c-0.06.26-.16,0.62-0.28,1.06-0.24.87-.56,2-0.87,3.2-0.16.58-.33,1.16-0.46,1.71s-0.21,1.08-.26,1.53A7,7,0,0,0,46.29,97a1.28,1.28,0,0,0,0,.32,0.12,0.12,0,0,0,.07.09h0l0,0s0,0,0-.05a1.57,1.57,0,0,1,0-.29c0.06-.25.16-0.61,0.28-1s0.25-.94.38-1.49l0.34-1.74c0.24-1.18.49-2.36,0.66-3.25,0.08-.44.15-0.82,0.19-1.08s0.05-.41.05-0.41h0S48.29,88.17,48.23,88.43Z" style="fill: #4aa8d0"/>
      <path d="M50.52,75.25c0,0.08-.09.19-0.13,0.31a4.26,4.26,0,0,0-.12.42c0,0.15-.07.32-0.09,0.5s0,0.36-.06.56c0,0.39,0,.8,0,1.21,0,0.82,0,1.64,0,2.25s0,1,0,1h0l0.05-.28c0-.18.07-0.43,0.12-0.74,0.09-.61.15-1.43,0.22-2.25,0-.41.09-0.81,0.11-1.19s0-.73,0-1V75.61c0-.12,0-0.23,0-0.32l0-.28,0,0A2.21,2.21,0,0,0,50.52,75.25Z" style="fill: #4aa8d0"/>
      <path d="M63.69,81.63l-1,.28-1.44.38-0.81.23c-0.28.08-.56,0.14-0.84,0.22s-0.57.13-.85,0.17L57.89,83c-0.27,0-.53.06-0.78,0.09l-0.7,0c-0.22,0-.42,0-0.6,0s-0.33,0-.46,0l-0.4,0v0l0.4,0.08c0.13,0,.28,0,0.46.06s0.38,0,.61,0h0.72c0.25,0,.52,0,0.8,0l0.85-.08c0.29,0,.58-0.08.88-0.12L60.52,83c0.29-.05.57-0.12,0.84-0.18s0.53-.16.77-0.24l0.67-.26c0.2-.09.39-0.18,0.55-0.26s0.3-.16.41-0.23l0.34-.23,0,0Z" style="fill: #4aa8d0"/>
      <path d="M58.67,92.52a14.73,14.73,0,0,0-1-1.22c-0.2-.21-0.4-0.42-0.62-0.63L56.4,90l-0.67-.62c-0.23-.2-0.45-0.4-0.67-0.58a13.69,13.69,0,0,0-1.25-1c-0.19-.13-0.38-0.23-0.53-0.33l-0.44-.22-0.29-.1-0.1,0,0,0,0.1,0,0.28,0.13,0.4,0.25c0.15,0.11.32,0.22,0.5,0.37s0.37,0.3.56,0.47L54.87,89c0.21,0.19.41,0.41,0.62,0.61l0.62,0.66c0.41,0.44.8,0.91,1.18,1.33,0.19,0.21.37,0.41,0.56,0.6l0.51,0.53,0.43,0.45,0.34,0.34,0.3,0.3,0,0s-0.07-.14-0.2-0.37A10.79,10.79,0,0,0,58.67,92.52Z" style="fill: #4aa8d0"/>
      <path d="M46.08,83c-0.22-.12-0.53-0.3-0.89-0.54-0.72-.48-1.65-1.15-2.59-1.81-0.47-.33-0.93-0.68-1.39-1-0.23-.14-0.46-0.28-0.68-0.39s-0.44-.22-0.64-0.3a2.91,2.91,0,0,0-1.05-.26l-0.18,0-0.13,0-0.09.07,0,0,0.09,0h0.11l0.15,0a2.51,2.51,0,0,1,.4.17c0.15,0.07.32,0.17,0.5,0.28l0.58,0.36,0.65,0.41L42.39,81c1,0.6,1.95,1.23,2.71,1.64,0.38,0.21.71,0.37,0.94,0.47l0.27,0.11,0.1,0,0,0-0.09,0Z" style="fill: #4aa8d0"/>
      <path d="M44.11,86.25l-0.35.09-0.45.13c-0.33.1-.71,0.23-1.11,0.39l-1.25.49-1.25.48-0.56.25-0.5.23-0.42.19-0.33.14-0.29.11v0h0.33l0.37,0c0.14,0,.3-0.05.47-0.1a7.86,7.86,0,0,0,1.12-.38c0.4-.17.8-0.39,1.21-0.59l1.21-.59,1.06-.49,0.43-.18,0.34-.12,0.3-.1v0Z" style="fill: #4aa8d0"/>
    </g>
    <path d="M20.36,67.41l0.54,2.66,23-4.64-0.54-2.66Zm0.92,2.09-0.34-1.71L43,63.34,43.35,65Z" style="fill: #4aa8d0"/>
    <g>
      <path d="M94,79.81c0.23-.13.25-0.15,0,0h0Z" style="fill: #231f20;opacity: 0.1"/>
      <path d="M139.2,101.92l-33.3-26.3a1.68,1.68,0,0,0-2.18.06l-2.87-2.3A22.35,22.35,0,0,0,103,69.18a1.26,1.26,0,0,0,.07-0.58,22.2,22.2,0,1,0-34.76,9.74C79.63,87.4,92.39,80.76,94,79.81c0.25-.15.23-0.13,0,0h0a1.26,1.26,0,0,0,.72-0.22,22.18,22.18,0,0,0,3.57-3.05l2.85,2.29A1.68,1.68,0,0,0,101.6,81l32.88,26.83a1.69,1.69,0,0,0,2.37-.26l2.61-3.25A1.69,1.69,0,0,0,139.2,101.92Z" style="fill: #231f20;opacity: 0.1"/>
      <g>
        <rect x="99.86" y="70.83" width="4.05" height="13.28" transform="translate(-22.31 108.42) rotate(-51.24)" style="fill: #d0d2d3"/>
        <path d="M137.21,101l-33.3-26.3a1.69,1.69,0,0,0-2.37.26l-2.19,2.72a1.69,1.69,0,0,0,.26,2.37l32.88,26.83a1.69,1.69,0,0,0,2.37-.26l2.61-3.25A1.69,1.69,0,0,0,137.21,101Z" style="fill: #342e2f"/>
        <path d="M135,103.81l-33.15-26.5c-0.73-.58-1.44-0.91-1.58-0.72l-0.55.69c-0.15.18,0.32,0.81,1,1.39l33,26.63c0.73,0.58,1.44.91,1.58,0.72l0.66-.83C136.15,105,135.69,104.39,135,103.81Z" style="fill: #857d7e"/>
        <path d="M94.15,42.79A22.2,22.2,0,1,0,97.56,74,22.23,22.23,0,0,0,94.15,42.79Zm1.7,29.84A20,20,0,1,1,92.77,44.5,20,20,0,0,1,95.85,72.63Z" style="fill: #6d6e71"/>
        <circle cx="80.25" cy="60.1" r="21.1" transform="translate(-16.86 85.05) rotate(-51.24)" style="fill: #cfecf6;opacity: 0.5"/>
        <path d="M66,48.55a18.36,18.36,0,0,0,14,29.86c-2.74-3.57-7.2-22.17.16-36.72A18.32,18.32,0,0,0,66,48.55Z" style="fill: #fff;opacity: 0.6000000000000001"/>
        <path d="M100.31,66.63a1.26,1.26,0,0,0-1.64.72,20.06,20.06,0,0,1-7.32,9.24,1.27,1.27,0,1,0,1.43,2.09A22.58,22.58,0,0,0,101,68.26,1.27,1.27,0,0,0,100.31,66.63Z" style="fill: #342e2f"/>
      </g>
    </g>
  </g>
  <g style="opacity: 0.6">
    <g>
      <polygon points="141.05 82.36 141.23 82.84 141.23 82.84 141.05 82.36" style="fill: #231f20;opacity: 0.2"/>
      <path d="M146.86,87.7a1.11,1.11,0,0,0,.63-1.43l-0.59-1.55-20-52.61-2.49-4.27-0.3.11c-0.05-.19-0.1-0.35-0.13-0.44a1.22,1.22,0,0,0-1.57-.71l-0.06,0-0.06,0a0.68,0.68,0,0,0-.29.21,1.22,1.22,0,0,0-.3,1.31c0,0.09.1,0.24,0.19,0.41l-0.3.11,1,4.85L141,82.32l-1.06.4L134.69,68.8a5.59,5.59,0,0,1,.82,1.44,3.34,3.34,0,0,1,.33.36,0.36,0.36,0,0,0,.22-0.24c0.11-.4-0.61-1.61-2.14-3.59a0.28,0.28,0,0,0-.48.27l6.14,16.14a0.28,0.28,0,0,0,.36.16l1.32-.5-0.18-.48,0.18,0.48h0l1.34,3.52,0.59,1.55a1.11,1.11,0,0,0,1.42.65l1.14,3a0.41,0.41,0,0,0,.52.24l0.81-.31,0.47-.18,0.24-.09A0.41,0.41,0,0,0,148,90.7Z" style="fill: #231f20;opacity: 0.2"/>
      <g>
        <rect x="143.29" y="85.77" width="2.43" height="5.21" rx="0.41" ry="0.41" transform="translate(-21.97 57.1) rotate(-20.81)" style="fill: #bbbdbf"/>
        <path d="M144.37,86.07a0.43,0.43,0,0,0-.26-0.33l-0.47.18a0.43,0.43,0,0,0,0,.42l1.56,4.11a0.43,0.43,0,0,0,.26.33l0.47-.18a0.43,0.43,0,0,0,0-.42Z" style="fill: #e5e6e7"/>
        <path d="M120.83,26.1a1.22,1.22,0,0,0-.71,1.57c0.24,0.63,2,3.76,2.64,3.52s-0.13-3.76-.37-4.39A1.22,1.22,0,0,0,120.83,26.1Z" style="fill: #414042"/>
        <path d="M120.71,26.14a0.68,0.68,0,0,0-.39.88c0.13,0.35,1.25,2.44,1.61,2.31s-0.2-2.44-.33-2.79A0.68,0.68,0,0,0,120.71,26.14Z" style="fill: #58595b"/>
        <rect x="130.86" y="30.38" width="4.62" height="56.35" transform="translate(-12.12 51.14) rotate(-20.81)" style="fill: #414042"/>
        <rect x="133.19" y="30.16" width="1.16" height="56.35" transform="translate(-12 51.34) rotate(-20.81)" style="fill: #58595b"/>
        <polygon points="120.03 28.19 121 33.04 125.33 31.4 122.83 27.13 120.03 28.19" style="fill: #bbbdbf"/>
        <polygon points="121.64 27.58 123.17 32.22 124.34 31.77 122.4 27.29 121.64 27.58" style="fill: #e5e6e7"/>
        <path d="M145.32,84L141,85.66l0.59,1.55a1.11,1.11,0,0,0,1.43.64l2.25-.85a1.11,1.11,0,0,0,.64-1.43Z" style="fill: #bbbdbf"/>
        <path d="M144.3,84.4l-1.46.56,0.59,1.55a1.13,1.13,0,0,0,.75.9l0.76-.29a1.13,1.13,0,0,0,0-1.17Z" style="fill: #e5e6e7"/>
        <path d="M138.41,82l-5.29-13.92a5.58,5.58,0,0,1,.82,1.44,3.32,3.32,0,0,1,.33.36,0.36,0.36,0,0,0,.22-0.24c0.11-.4-0.61-1.61-2.14-3.59a0.28,0.28,0,0,0-.48.27L138,82.47a0.28,0.28,0,0,0,.36.16l1.32-.5-0.2-.52Z" style="fill: #e5e6e7"/>
      </g>
    </g>
    <g>
      <path d="M149.81,66.81L142.5,19.24l-2-4.54L139,11.45l-0.36,3.13h0l0,0.31-0.58,5L145,65.16h0l0.24,1.57,0.65,4.18a1.33,1.33,0,0,0,1.46,1.17l2-.3a1.33,1.33,0,0,0,1-1.56Z" style="fill: #231f20;opacity: 0.30000000000000004"/>
      <polygon points="138.88 18.56 136.65 18.91 144.01 66.79 148.47 66.1 141.12 18.21 138.88 18.56" style="fill: #008bd2"/>
      <rect x="141.12" y="17.91" width="0.65" height="46.79" transform="matrix(0.99, -0.15, 0.15, 0.99, -4.63, 21.95)" style="fill: #8bbaca"/>
      <polygon points="139.41 17.95 146.51 64.19 147.16 64.09 140.06 17.84 139.41 17.95" style="fill: #8bbaca"/>
      <path d="M136.65,18.9a4.82,4.82,0,0,0,4.46-.69l-3.49-7.79Z" style="fill: #f7d5a4"/>
      <path d="M137.23,13.87a1.59,1.59,0,0,0,1.85-.19l-1.46-3.25Z" style="fill: #08556d"/>
      <path d="M148.3,65a7.72,7.72,0,0,1-4.46.69l0.65,4.18a1.33,1.33,0,0,0,1.46,1.17l2-.3a1.33,1.33,0,0,0,1-1.56Z" style="fill: #d0d2d3"/>
      <path d="M145.87,64.06c-0.56.09-2.27,0.07-2.27,0.07L144,67s1.72,0,2.27-.07,2.19-.62,2.19-0.62l-0.44-2.86S146.43,64,145.87,64.06Z" style="fill: #f7b316"/>
      <path d="M145.07,63.91c-1.15-4.42-8.07-42.78-7.8-50.35l0,0.31-0.58,5,7.83,51a1.33,1.33,0,0,0,1.46,1.17l1.16-.18c-0.33-.9-0.61-1.82-0.87-2.74C145.83,66.73,145.44,65.32,145.07,63.91Z" style="opacity: 0.15"/>
    </g>
  </g>
  <rect x="292.71" y="74.2" width="76.97" height="89.48" transform="translate(543.06 399.91) rotate(-146.77)" style="opacity: 0.6;fill: url(#b)"/>
  <g style="opacity: 0.6">
    <path d="M328.86,63.7l-113.07-69a4.65,4.65,0,0,0-6.33,1.44L163.86,68a4.45,4.45,0,0,0,1.47,6.21l113.07,69a4.66,4.66,0,0,0,6.34-1.44l45.59-71.78A4.46,4.46,0,0,0,328.86,63.7Z" style="fill: #231f20;opacity: 0.2"/>
    <path d="M374.06,26.16L223.56-65.64A2.66,2.66,0,0,0,221-66c-1.52.69-1.71,3-2,6.31,0,0.27,0,.55-0.07.82l-3.84,42.69c-1,7.12.22,8.54,1.73,9.47L325.26,59.37c1.44,0.88,3.31,1.41,8.88-2.51l36-23.5,1.35-.84c2.36-1.46,4.22-2.61,4.16-4.18A2.82,2.82,0,0,0,374.06,26.16Z" style="fill: #bbbdbf"/>
    <path d="M328.27,61.22L215.2-7.76a4.65,4.65,0,0,0-6.34,1.45L163.27,65.47a4.46,4.46,0,0,0,1.47,6.21l113.07,69a4.65,4.65,0,0,0,6.34-1.44l45.59-71.78A4.46,4.46,0,0,0,328.27,61.22Z" style="fill: #dcdcdc"/>
    <path d="M328.27,61.22L215.2-7.76a4.65,4.65,0,0,0-6.34,1.45L163.27,65.47a4.46,4.46,0,0,0,1.47,6.21l165-4.25A4.46,4.46,0,0,0,328.27,61.22Z" style="fill: #dcdcdc"/>
    <path d="M311.87,62.47L221.29,7.21a2.79,2.79,0,0,0-3.8.87L196.88,40.53a2.67,2.67,0,0,0,.88,3.72l90.58,55.26a2.79,2.79,0,0,0,3.8-.87L312.76,66.2A2.67,2.67,0,0,0,311.87,62.47Z" style="fill: #d0d2d3"/>
    <g>
      <path d="M225.69,11.7l-5.47-3.33a0.37,0.37,0,0,0-.51.12l-1.55,2.45a0.36,0.36,0,0,0,.12.5l5.47,3.33a0.37,0.37,0,0,0,.51-0.12l1.56-2.45A0.36,0.36,0,0,0,225.69,11.7Z" style="fill: #414042"/>
      <path d="M304.55,59.81l-5.47-3.33a0.37,0.37,0,0,0-.51.12L297,59a0.36,0.36,0,0,0,.12.5l5.47,3.33a0.37,0.37,0,0,0,.51-0.12l1.56-2.45A0.36,0.36,0,0,0,304.55,59.81Z" style="fill: #414042"/>
      <path d="M298,55.8l-5.46-3.33a0.37,0.37,0,0,0-.51.12L290.45,55a0.36,0.36,0,0,0,.12.5L296,58.86a0.37,0.37,0,0,0,.51-0.12l1.56-2.45A0.36,0.36,0,0,0,298,55.8Z" style="fill: #414042"/>
      <path d="M291.41,51.79l-5.47-3.33a0.37,0.37,0,0,0-.51.12L283.88,51a0.36,0.36,0,0,0,.12.5l5.47,3.33a0.37,0.37,0,0,0,.51-0.12l1.56-2.45A0.36,0.36,0,0,0,291.41,51.79Z" style="fill: #414042"/>
      <path d="M284.84,47.78l-5.47-3.33a0.37,0.37,0,0,0-.51.11L277.31,47a0.36,0.36,0,0,0,.12.5l5.47,3.33a0.37,0.37,0,0,0,.51-0.12L285,48.28A0.36,0.36,0,0,0,284.84,47.78Z" style="fill: #414042"/>
      <path d="M278.27,43.78l-5.47-3.33a0.37,0.37,0,0,0-.51.12L270.74,43a0.36,0.36,0,0,0,.12.5l5.47,3.33a0.37,0.37,0,0,0,.51-0.12l1.56-2.45A0.36,0.36,0,0,0,278.27,43.78Z" style="fill: #414042"/>
      <path d="M271.7,39.77l-5.47-3.33a0.37,0.37,0,0,0-.51.12L264.17,39a0.36,0.36,0,0,0,.12.5l5.47,3.33a0.37,0.37,0,0,0,.51-0.12l1.55-2.45A0.36,0.36,0,0,0,271.7,39.77Z" style="fill: #414042"/>
      <path d="M265.12,35.76l-5.47-3.33a0.37,0.37,0,0,0-.51.12L257.6,35a0.36,0.36,0,0,0,.12.5l5.47,3.33a0.37,0.37,0,0,0,.51-0.12l1.55-2.45A0.35,0.35,0,0,0,265.12,35.76Z" style="fill: #414042"/>
      <path d="M258.55,31.75l-5.47-3.33a0.37,0.37,0,0,0-.51.12L251,31a0.36,0.36,0,0,0,.12.5l5.47,3.33a0.37,0.37,0,0,0,.51-0.12l1.56-2.45A0.36,0.36,0,0,0,258.55,31.75Z" style="fill: #414042"/>
      <path d="M252,27.74l-5.47-3.33a0.37,0.37,0,0,0-.51.12L244.45,27a0.36,0.36,0,0,0,.12.5L250,30.8a0.37,0.37,0,0,0,.51-0.12l1.56-2.45A0.35,0.35,0,0,0,252,27.74Z" style="fill: #414042"/>
      <path d="M245.41,23.73l-5.47-3.33a0.37,0.37,0,0,0-.51.12L237.88,23a0.36,0.36,0,0,0,.12.5l5.46,3.33a0.37,0.37,0,0,0,.51-0.12l1.55-2.45A0.36,0.36,0,0,0,245.41,23.73Z" style="fill: #414042"/>
      <path d="M238.84,19.72l-5.47-3.33a0.37,0.37,0,0,0-.51.12L231.31,19a0.36,0.36,0,0,0,.12.5l5.46,3.33a0.37,0.37,0,0,0,.51-0.12L239,20.22A0.36,0.36,0,0,0,238.84,19.72Z" style="fill: #414042"/>
      <path d="M232.27,15.71l-5.47-3.33a0.37,0.37,0,0,0-.51.12l-1.55,2.45a0.36,0.36,0,0,0,.12.5l5.47,3.33a0.37,0.37,0,0,0,.51-0.12l1.55-2.45A0.36,0.36,0,0,0,232.27,15.71Z" style="fill: #414042"/>
      <path d="M311.12,63.82l-5.47-3.33a0.37,0.37,0,0,0-.51.12L303.6,63a0.36,0.36,0,0,0,.12.5l5.47,3.33a0.37,0.37,0,0,0,.51-0.12l1.56-2.45A0.36,0.36,0,0,0,311.12,63.82Z" style="fill: #414042"/>
    </g>
    <g>
      <path d="M292.16,66.31l-5.07-3.1a0.37,0.37,0,0,0-.51.12l-2.72,4.29a0.36,0.36,0,0,0,.12.5l5.07,3.1a0.37,0.37,0,0,0,.51-0.12l2.72-4.28A0.36,0.36,0,0,0,292.16,66.31Z" style="fill: #414042"/>
      <path d="M285.78,62.42l-5.08-3.1a0.37,0.37,0,0,0-.51.12l-2.72,4.29a0.36,0.36,0,0,0,.12.5l5.08,3.1a0.37,0.37,0,0,0,.51-0.12l2.72-4.29A0.36,0.36,0,0,0,285.78,62.42Z" style="fill: #414042"/>
      <path d="M279.41,58.53l-5.08-3.1a0.37,0.37,0,0,0-.51.12l-2.72,4.28a0.36,0.36,0,0,0,.12.5l5.08,3.1a0.37,0.37,0,0,0,.51-0.12L279.52,59A0.36,0.36,0,0,0,279.41,58.53Z" style="fill: #414042"/>
      <path d="M273,54.64L268,51.54a0.37,0.37,0,0,0-.51.12l-2.72,4.28a0.36,0.36,0,0,0,.12.5l5.08,3.1a0.37,0.37,0,0,0,.51-0.12l2.72-4.29A0.36,0.36,0,0,0,273,54.64Z" style="fill: #414042"/>
      <path d="M266.65,50.75l-5.08-3.1a0.37,0.37,0,0,0-.51.12L258.34,52a0.36,0.36,0,0,0,.12.5l5.07,3.1a0.37,0.37,0,0,0,.51-0.12l2.72-4.29A0.35,0.35,0,0,0,266.65,50.75Z" style="fill: #414042"/>
      <path d="M260.27,46.85l-5.08-3.1a0.37,0.37,0,0,0-.51.12L252,48.16a0.36,0.36,0,0,0,.12.5l5.08,3.1a0.37,0.37,0,0,0,.51-0.12l2.72-4.29A0.36,0.36,0,0,0,260.27,46.85Z" style="fill: #414042"/>
      <path d="M253.89,43l-5.08-3.1a0.37,0.37,0,0,0-.51.12l-2.72,4.29a0.36,0.36,0,0,0,.12.5l5.08,3.1a0.37,0.37,0,0,0,.51-0.12L254,43.46A0.36,0.36,0,0,0,253.89,43Z" style="fill: #414042"/>
      <path d="M247.51,39.07L242.43,36a0.37,0.37,0,0,0-.51.12l-2.72,4.29a0.36,0.36,0,0,0,.12.5L244.4,44a0.37,0.37,0,0,0,.51-0.12l2.72-4.28A0.36,0.36,0,0,0,247.51,39.07Z" style="fill: #414042"/>
      <path d="M241.13,35.18l-5.08-3.1a0.37,0.37,0,0,0-.51.12l-2.72,4.28a0.36,0.36,0,0,0,.12.5l5.08,3.1a0.37,0.37,0,0,0,.51-0.12l2.72-4.28A0.36,0.36,0,0,0,241.13,35.18Z" style="fill: #414042"/>
      <path d="M234.75,31.29l-5.08-3.1a0.37,0.37,0,0,0-.51.12l-2.72,4.29a0.36,0.36,0,0,0,.12.5l5.08,3.1a0.37,0.37,0,0,0,.51-0.12l2.72-4.28A0.36,0.36,0,0,0,234.75,31.29Z" style="fill: #414042"/>
      <path d="M228.37,27.4l-5.08-3.1a0.37,0.37,0,0,0-.51.12l-2.72,4.29a0.36,0.36,0,0,0,.12.5l5.08,3.1a0.37,0.37,0,0,0,.51-0.12l2.72-4.29A0.36,0.36,0,0,0,228.37,27.4Z" style="fill: #414042"/>
      <path d="M298.54,70.2l-5.08-3.1a0.37,0.37,0,0,0-.51.12l-2.72,4.28a0.36,0.36,0,0,0,.12.5l5.08,3.1a0.37,0.37,0,0,0,.51-0.12l2.72-4.28A0.36,0.36,0,0,0,298.54,70.2Z" style="fill: #414042"/>
      <path d="M222,23.5l-8.2-5a0.37,0.37,0,0,0-.51.12l-2.72,4.28a0.36,0.36,0,0,0,.12.5l8.2,5a0.37,0.37,0,0,0,.51-0.12L222.11,24A0.36,0.36,0,0,0,222,23.5Z" style="fill: #414042"/>
    </g>
    <g>
      <path d="M226.27,34.42l-5.08-3.1a0.37,0.37,0,0,0-.51.12L218,35.72a0.36,0.36,0,0,0,.12.5l5.08,3.1a0.37,0.37,0,0,0,.51-0.11l2.72-4.29A0.36,0.36,0,0,0,226.27,34.42Z" style="fill: #414042"/>
      <path d="M289.88,73.22l-5.07-3.1a0.37,0.37,0,0,0-.51.12l-2.72,4.28a0.36,0.36,0,0,0,.12.5l5.08,3.1a0.37,0.37,0,0,0,.51-0.11L290,73.72A0.36,0.36,0,0,0,289.88,73.22Z" style="fill: #414042"/>
      <path d="M283.52,69.34l-5.08-3.1a0.37,0.37,0,0,0-.51.12l-2.72,4.28a0.36,0.36,0,0,0,.12.5l5.08,3.1a0.37,0.37,0,0,0,.51-0.12l2.72-4.29A0.36,0.36,0,0,0,283.52,69.34Z" style="fill: #414042"/>
      <path d="M277.16,65.46l-5.08-3.1a0.37,0.37,0,0,0-.51.12l-2.72,4.28a0.36,0.36,0,0,0,.12.5l5.07,3.1a0.37,0.37,0,0,0,.51-0.12L277.28,66A0.36,0.36,0,0,0,277.16,65.46Z" style="fill: #414042"/>
      <path d="M270.8,61.58l-5.08-3.1a0.37,0.37,0,0,0-.51.12l-2.72,4.28a0.36,0.36,0,0,0,.12.5l5.08,3.1a0.37,0.37,0,0,0,.51-0.12l2.72-4.28A0.36,0.36,0,0,0,270.8,61.58Z" style="fill: #414042"/>
      <path d="M264.44,57.7l-5.08-3.1a0.37,0.37,0,0,0-.51.12L256.13,59a0.35,0.35,0,0,0,.12.5l5.08,3.1a0.37,0.37,0,0,0,.51-0.12l2.72-4.29A0.36,0.36,0,0,0,264.44,57.7Z" style="fill: #414042"/>
      <path d="M258.08,53.82L253,50.72a0.37,0.37,0,0,0-.51.12l-2.72,4.29a0.36,0.36,0,0,0,.12.5l5.08,3.1a0.37,0.37,0,0,0,.51-0.12l2.72-4.29A0.36,0.36,0,0,0,258.08,53.82Z" style="fill: #414042"/>
      <path d="M251.71,49.94l-5.08-3.1a0.37,0.37,0,0,0-.51.12l-2.72,4.28a0.36,0.36,0,0,0,.12.5l5.08,3.1a0.37,0.37,0,0,0,.51-0.12l2.72-4.29A0.36,0.36,0,0,0,251.71,49.94Z" style="fill: #414042"/>
      <path d="M245.35,46.06L240.28,43a0.37,0.37,0,0,0-.51.12L237,47.36a0.35,0.35,0,0,0,.12.5l5.08,3.1a0.37,0.37,0,0,0,.51-0.12l2.72-4.29A0.36,0.36,0,0,0,245.35,46.06Z" style="fill: #414042"/>
      <path d="M239,42.18l-5.08-3.1a0.37,0.37,0,0,0-.51.12l-2.72,4.29a0.35,0.35,0,0,0,.12.5l5.07,3.1a0.37,0.37,0,0,0,.51-0.12l2.72-4.29A0.36,0.36,0,0,0,239,42.18Z" style="fill: #414042"/>
      <path d="M232.63,38.3l-5.08-3.1a0.37,0.37,0,0,0-.51.12l-2.72,4.29a0.36,0.36,0,0,0,.12.5l5.07,3.1a0.37,0.37,0,0,0,.51-0.12l2.72-4.29A0.36,0.36,0,0,0,232.63,38.3Z" style="fill: #414042"/>
      <path d="M296.24,77.1L291.17,74a0.37,0.37,0,0,0-.51.12l-2.72,4.29a0.35,0.35,0,0,0,.12.5l5.08,3.1a0.37,0.37,0,0,0,.51-0.12l2.72-4.29A0.35,0.35,0,0,0,296.24,77.1Z" style="fill: #414042"/>
      <path d="M219.91,30.54l-9.92-6a0.37,0.37,0,0,0-.51.12l-2.72,4.29a0.36,0.36,0,0,0,.12.5l9.92,6a0.37,0.37,0,0,0,.51-0.12L220,31A0.36,0.36,0,0,0,219.91,30.54Z" style="fill: #414042"/>
    </g>
    <g>
      <path d="M225.46,42.22l-5.08-3.1a0.37,0.37,0,0,0-.51.12l-2.72,4.29a0.36,0.36,0,0,0,.12.5l5.08,3.1a0.37,0.37,0,0,0,.51-0.12l2.72-4.29A0.36,0.36,0,0,0,225.46,42.22Z" style="fill: #414042"/>
      <path d="M282.89,77.26l-5.07-3.1a0.37,0.37,0,0,0-.51.12l-2.72,4.29a0.36,0.36,0,0,0,.12.5l5.08,3.1a0.37,0.37,0,0,0,.51-0.12L283,77.76A0.36,0.36,0,0,0,282.89,77.26Z" style="fill: #414042"/>
      <path d="M276.51,73.37l-5.08-3.1a0.37,0.37,0,0,0-.51.11l-2.72,4.29a0.36,0.36,0,0,0,.12.5l5.08,3.1a0.37,0.37,0,0,0,.51-0.12l2.72-4.29A0.36,0.36,0,0,0,276.51,73.37Z" style="fill: #414042"/>
      <path d="M270.13,69.48l-5.08-3.1a0.37,0.37,0,0,0-.51.12l-2.72,4.29a0.36,0.36,0,0,0,.12.5l5.08,3.1a0.37,0.37,0,0,0,.51-0.12L270.25,70A0.35,0.35,0,0,0,270.13,69.48Z" style="fill: #414042"/>
      <path d="M263.75,65.58l-5.08-3.1a0.37,0.37,0,0,0-.51.12l-2.72,4.29a0.36,0.36,0,0,0,.12.5l5.07,3.1a0.37,0.37,0,0,0,.51-0.11l2.72-4.29A0.36,0.36,0,0,0,263.75,65.58Z" style="fill: #414042"/>
      <path d="M257.37,61.69l-5.08-3.1a0.37,0.37,0,0,0-.51.12L249.06,63a0.36,0.36,0,0,0,.12.5l5.08,3.1a0.37,0.37,0,0,0,.51-0.11l2.72-4.29A0.36,0.36,0,0,0,257.37,61.69Z" style="fill: #414042"/>
      <path d="M251,57.8l-5.07-3.1a0.37,0.37,0,0,0-.51.12l-2.72,4.29a0.36,0.36,0,0,0,.12.5l5.08,3.1a0.37,0.37,0,0,0,.51-0.12l2.72-4.29A0.36,0.36,0,0,0,251,57.8Z" style="fill: #414042"/>
      <path d="M244.6,53.9l-5.08-3.1a0.37,0.37,0,0,0-.51.11l-2.72,4.29a0.36,0.36,0,0,0,.12.5l5.07,3.1a0.37,0.37,0,0,0,.51-0.12l2.72-4.29A0.36,0.36,0,0,0,244.6,53.9Z" style="fill: #414042"/>
      <path d="M238.22,50l-5.08-3.1a0.37,0.37,0,0,0-.51.12l-2.72,4.29a0.36,0.36,0,0,0,.12.5l5.08,3.1a0.37,0.37,0,0,0,.51-0.12l2.72-4.29A0.36,0.36,0,0,0,238.22,50Z" style="fill: #414042"/>
      <path d="M231.84,46.12L226.76,43a0.37,0.37,0,0,0-.51.12l-2.72,4.28a0.36,0.36,0,0,0,.12.5l5.08,3.1a0.37,0.37,0,0,0,.51-0.12L232,46.61A0.36,0.36,0,0,0,231.84,46.12Z" style="fill: #414042"/>
      <path d="M219.07,38.33l-12.88-7.86a0.37,0.37,0,0,0-.51.11L203,34.87a0.36,0.36,0,0,0,.12.5L216,43.23a0.37,0.37,0,0,0,.51-0.12l2.72-4.29A0.36,0.36,0,0,0,219.07,38.33Z" style="fill: #414042"/>
      <path d="M297.09,85.92L284.2,78.06a0.37,0.37,0,0,0-.51.12L281,82.46a0.36,0.36,0,0,0,.12.5L294,90.82a0.37,0.37,0,0,0,.51-0.11l2.72-4.29A0.36,0.36,0,0,0,297.09,85.92Z" style="fill: #414042"/>
    </g>
    <g>
      <path d="M222.67,15.61l-5.08-3.1a0.37,0.37,0,0,0-.51.12l-2.72,4.29a0.36,0.36,0,0,0,.12.5l5.08,3.1a0.37,0.37,0,0,0,.51-0.12l2.72-4.29A0.36,0.36,0,0,0,222.67,15.61Z" style="fill: #414042"/>
      <path d="M308.49,68l-8.36-5.1a0.37,0.37,0,0,0-.51.12l-2.72,4.29a0.36,0.36,0,0,0,.12.5l8.36,5.1a0.37,0.37,0,0,0,.51-0.12l2.72-4.29A0.36,0.36,0,0,0,308.49,68Z" style="fill: #414042"/>
      <path d="M292.51,58.22l-5.08-3.1a0.37,0.37,0,0,0-.51.12l-2.72,4.29a0.36,0.36,0,0,0,.12.5l5.07,3.09a0.37,0.37,0,0,0,.51-0.11l2.72-4.29A0.36,0.36,0,0,0,292.51,58.22Z" style="fill: #414042"/>
      <path d="M286.16,54.35l-5.08-3.1a0.37,0.37,0,0,0-.51.12l-2.72,4.28a0.36,0.36,0,0,0,.12.5l5.08,3.1a0.37,0.37,0,0,0,.51-0.12l2.72-4.29A0.36,0.36,0,0,0,286.16,54.35Z" style="fill: #414042"/>
      <path d="M279.81,50.47l-5.08-3.1a0.37,0.37,0,0,0-.51.12l-2.72,4.29a0.36,0.36,0,0,0,.12.5l5.08,3.1a0.37,0.37,0,0,0,.51-0.12L279.93,51A0.36,0.36,0,0,0,279.81,50.47Z" style="fill: #414042"/>
      <path d="M273.46,46.6l-5.08-3.1a0.37,0.37,0,0,0-.51.12l-2.72,4.29a0.36,0.36,0,0,0,.12.5l5.08,3.1a0.37,0.37,0,0,0,.51-0.12l2.72-4.29A0.36,0.36,0,0,0,273.46,46.6Z" style="fill: #414042"/>
      <path d="M267.11,42.73L262,39.63a0.37,0.37,0,0,0-.51.12L258.81,44a0.36,0.36,0,0,0,.12.5l5.08,3.1a0.37,0.37,0,0,0,.51-0.12l2.72-4.29A0.36,0.36,0,0,0,267.11,42.73Z" style="fill: #414042"/>
      <path d="M260.77,38.85l-5.08-3.1a0.37,0.37,0,0,0-.51.12l-2.72,4.29a0.36,0.36,0,0,0,.12.5l5.08,3.1a0.37,0.37,0,0,0,.51-0.12l2.72-4.29A0.36,0.36,0,0,0,260.77,38.85Z" style="fill: #414042"/>
      <path d="M254.42,35l-5.08-3.1a0.37,0.37,0,0,0-.51.12l-2.72,4.29a0.36,0.36,0,0,0,.12.5l5.08,3.1a0.37,0.37,0,0,0,.51-0.12l2.72-4.29A0.36,0.36,0,0,0,254.42,35Z" style="fill: #414042"/>
      <path d="M248.07,31.11L243,28a0.37,0.37,0,0,0-.51.12l-2.72,4.29a0.36,0.36,0,0,0,.12.5L245,36a0.37,0.37,0,0,0,.51-0.11l2.72-4.29A0.36,0.36,0,0,0,248.07,31.11Z" style="fill: #414042"/>
      <path d="M241.72,27.23l-5.08-3.1a0.37,0.37,0,0,0-.51.11l-2.72,4.29a0.36,0.36,0,0,0,.12.5l5.08,3.1a0.37,0.37,0,0,0,.51-0.12l2.72-4.29A0.36,0.36,0,0,0,241.72,27.23Z" style="fill: #414042"/>
      <path d="M235.37,23.36l-5.08-3.1a0.37,0.37,0,0,0-.51.12l-2.72,4.29a0.36,0.36,0,0,0,.12.5l5.08,3.1a0.37,0.37,0,0,0,.51-0.12l2.72-4.29A0.36,0.36,0,0,0,235.37,23.36Z" style="fill: #414042"/>
      <path d="M229,19.49l-5.08-3.1a0.37,0.37,0,0,0-.51.12l-2.72,4.29a0.36,0.36,0,0,0,.12.5l5.08,3.1a0.37,0.37,0,0,0,.51-0.12L229.14,20A0.36,0.36,0,0,0,229,19.49Z" style="fill: #414042"/>
      <path d="M298.86,62.09L293.78,59a0.37,0.37,0,0,0-.51.12l-2.72,4.29a0.36,0.36,0,0,0,.12.5l5.08,3.1a0.37,0.37,0,0,0,.51-0.12L299,62.59A0.36,0.36,0,0,0,298.86,62.09Z" style="fill: #414042"/>
    </g>
    <path d="M304.73,73.89l-4.84-3a0.37,0.37,0,0,0-.51.12l-2.72,4.29a0.36,0.36,0,0,0,.12.5l1.17,0.72-3.65,5.74a0.36,0.36,0,0,0,.12.5l3.36,2a0.37,0.37,0,0,0,.51-0.12l6.56-10.33A0.36,0.36,0,0,0,304.73,73.89Z" style="fill: #414042"/>
    <g>
      <path d="M259.94,71.56L229.39,52.93a0.45,0.45,0,0,0-.61.12l-3.15,5a0.43,0.43,0,0,0,.16.59l30.55,18.64a0.45,0.45,0,0,0,.61-0.12l3.15-5A0.43,0.43,0,0,0,259.94,71.56Z" style="fill: #414042"/>
      <path d="M207.41,39.52l-4.95-3a0.45,0.45,0,0,0-.61.12l-3.15,5a0.43,0.43,0,0,0,.16.59l4.95,3a0.45,0.45,0,0,0,.61-0.12l3.15-5A0.43,0.43,0,0,0,207.41,39.52Z" style="fill: #414042"/>
      <path d="M213.83,43.44l-4.95-3a0.45,0.45,0,0,0-.61.12l-3.15,5a0.43,0.43,0,0,0,.16.59l4.95,3a0.45,0.45,0,0,0,.61-0.12L214,44A0.43,0.43,0,0,0,213.83,43.44Z" style="fill: #414042"/>
      <path d="M220.25,47.35l-4.95-3a0.45,0.45,0,0,0-.61.12l-3.15,5a0.43,0.43,0,0,0,.16.59l4.95,3a0.45,0.45,0,0,0,.61-0.12l3.15-5A0.43,0.43,0,0,0,220.25,47.35Z" style="fill: #414042"/>
      <path d="M274,80.16l-4.95-3a0.45,0.45,0,0,0-.61.12l-3.15,5a0.43,0.43,0,0,0,.16.59l4.95,3A0.45,0.45,0,0,0,271,85.7l3.15-5A0.43,0.43,0,0,0,274,80.16Z" style="fill: #414042"/>
      <path d="M227.92,52l-6.2-3.78a0.45,0.45,0,0,0-.61.12l-3.15,5a0.43,0.43,0,0,0,.16.59l6.2,3.78a0.45,0.45,0,0,0,.61-0.12l3.15-5A0.43,0.43,0,0,0,227.92,52Z" style="fill: #414042"/>
      <path d="M267.61,76.24l-6.2-3.78a0.45,0.45,0,0,0-.61.12l-3.15,5a0.43,0.43,0,0,0,.16.59L264,81.9a0.45,0.45,0,0,0,.61-0.12l3.15-5A0.43,0.43,0,0,0,267.61,76.24Z" style="fill: #414042"/>
      <path d="M278.7,86.94l-5.07-3.1a0.37,0.37,0,0,0-.51.11l-1.41,2.22a0.36,0.36,0,0,0,.12.5l5.07,3.1a0.37,0.37,0,0,0,.51-0.12l1.41-2.22A0.35,0.35,0,0,0,278.7,86.94Z" style="fill: #414042"/>
      <path d="M291.49,94.74l-5.08-3.1a0.37,0.37,0,0,0-.51.11L284.49,94a0.36,0.36,0,0,0,.12.5l5.08,3.1a0.37,0.37,0,0,0,.51-0.11l1.41-2.22A0.36,0.36,0,0,0,291.49,94.74Z" style="fill: #414042"/>
      <path d="M285.09,90.84L280,87.74a0.37,0.37,0,0,0-.51.12l-1.41,2.22a0.36,0.36,0,0,0,.12.5l5.08,3.09a0.37,0.37,0,0,0,.51-0.11l1.41-2.22A0.36,0.36,0,0,0,285.09,90.84Z" style="fill: #414042"/>
      <path d="M286.88,88l-5.08-3.1a0.35,0.35,0,0,0-.49.08l-1.26,2a0.34,0.34,0,0,0,.14.46l5.08,3.1a0.35,0.35,0,0,0,.49-0.08l1.26-2A0.34,0.34,0,0,0,286.88,88Z" style="fill: #414042"/>
    </g>
    <polygon points="222.48 1.92 316.29 59.15 318.69 55.38 224.88 -1.85 222.48 1.92" style="fill: #414042"/>
    <path d="M373.57,26.93L223.07-64.87c-2.69-1.64-2.77,1.89-3.11,6.09l-3.84,42.72c-1,7.09.27,7.95,1.26,8.55L325.69,58.56c1,0.61,2.39,1.4,7.87-2.46l36.05-23.51C373.17,30.3,376.55,28.76,373.57,26.93Z" style="fill: #414042"/>
    <path d="M255.61,85.56L224.77,66.74a2.79,2.79,0,0,0-3.8.87l-12.83,20.2a2.67,2.67,0,0,0,.88,3.72l30.85,18.82a2.79,2.79,0,0,0,3.8-.87l12.83-20.2A2.67,2.67,0,0,0,255.61,85.56Z" style="fill: #bbbdbf"/>
    <path d="M255.61,85.56l-47.48,2.25a2.67,2.67,0,0,0,.88,3.72l30.85,18.82a2.79,2.79,0,0,0,3.8-.87l12.83-20.2A2.67,2.67,0,0,0,255.61,85.56Z" style="fill: #bbbdbf"/>
    <polygon points="222.48 1.92 316.29 59.15 317.49 57.26 223.68 0.04 222.48 1.92" style="fill: #58595b"/>
    <polygon points="221.51 -11.32 328.1 53.43 366.29 27.83 226.05 -56.93 221.51 -11.32" style="fill: #fff"/>
    <polygon points="301.51 22.62 336.92 44.1 338.19 43.26 302.43 21.57 301.51 22.62" style="fill: #bbbdbf"/>
    <polygon points="263.66 -0.34 299.05 21.14 299.94 20.07 264.19 -1.62 263.66 -0.34" style="fill: #bbbdbf"/>
    <polygon points="299.66 24.67 334.35 45.72 335.63 44.89 300.58 23.62 299.66 24.67" style="fill: #bbbdbf"/>
    <polygon points="262.58 2.17 297.26 23.22 298.15 22.15 263.11 0.89 262.58 2.17" style="fill: #bbbdbf"/>
    <polygon points="297.8 26.72 331.9 47.48 333.2 46.66 298.73 25.67 297.8 26.72" style="fill: #bbbdbf"/>
    <polygon points="261.51 4.69 295.45 25.29 296.35 24.23 262.04 3.4 261.51 4.69" style="fill: #bbbdbf"/>
    <polygon points="295.93 28.76 329.4 49.18 330.72 48.37 296.86 27.72 295.93 28.76" style="fill: #bbbdbf"/>
    <polygon points="260.46 7.21 293.63 27.36 294.54 26.31 260.97 5.92 260.46 7.21" style="fill: #bbbdbf"/>
    <polygon points="294.05 30.79 326.91 50.9 328.24 50.1 294.99 29.75 294.05 30.79" style="fill: #bbbdbf"/>
    <polygon points="259.41 9.74 291.81 29.43 292.71 28.37 259.92 8.45 259.41 9.74" style="fill: #bbbdbf"/>
    <polygon points="271.26 -18.09 353.99 31.98 360.4 26.9 274.42 -25.1 271.26 -18.09" style="fill: #a6a8ab"/>
    <polygon points="225.92 -20.08 260.18 0.71 260.68 -0.59 226.09 -21.58 225.92 -20.08" style="fill: #bbbdbf"/>
    <polygon points="225.59 -17.13 259.17 3.26 259.66 1.96 225.76 -18.62 225.59 -17.13" style="fill: #bbbdbf"/>
    <polygon points="225.27 -14.17 258.16 5.82 258.65 4.51 225.43 -15.66 225.27 -14.17" style="fill: #bbbdbf"/>
    <polygon points="224.94 -11.21 257.17 8.38 257.65 7.07 225.11 -12.7 224.94 -11.21" style="fill: #bbbdbf"/>
    <polygon points="226.57 -26 339.43 42.44 352.83 32.87 228.37 -42.28 226.57 -26" style="fill: #1389c4"/>
    <path d="M340.18,32a1.93,1.93,0,0,0-1.14-.69c-0.44-.09-0.65.08-0.47,0.38L340,33.92l-3.44-.66c-0.44-.08-0.65.08-0.47,0.37a1.36,1.36,0,0,0,.46.41,2,2,0,0,0,.66.26l4.24,0.81c0.44,0.09.66-.08,0.49-0.37Z" style="fill: #fff"/>
  </g>
</svg>
